<svg id="Layer_1" data-name="Layer 1" xmlns="http://www.w3.org/2000/svg" viewBox="0 0 90 86"><defs><style>.cls-1{fill:#262262;}</style></defs><title>Blitzden_Lao_Web_Movil_SocialMedia</title><path class="cls-1" d="M60.26,67.76H29.74a9.74,9.74,0,0,1-9.49-9.49V27.74a9.74,9.74,0,0,1,9.49-9.49H60.26a9.74,9.74,0,0,1,9.49,9.49V58.26A9.74,9.74,0,0,1,60.26,67.76ZM29.74,22A6.08,6.08,0,0,0,24,27.74V58.26A6.08,6.08,0,0,0,29.74,64H60.26A6.08,6.08,0,0,0,66,58.26V27.74A6.08,6.08,0,0,0,60.26,22Z"/><path class="cls-1" d="M45,55.8A12.8,12.8,0,1,1,57.8,43,12.82,12.82,0,0,1,45,55.8Zm0-21.88A9.08,9.08,0,1,0,54.08,43,9.09,9.09,0,0,0,45,33.92Z"/><circle class="cls-1" cx="58.55" cy="31.03" r="2.59"/></svg>