<svg id="Layer_1" data-name="Layer 1" xmlns="http://www.w3.org/2000/svg" viewBox="0 0 90 86"><defs><style>.cls-1{fill:#262262;}</style></defs><title>Blitzden_Lao_Web_Movil_SocialMedia</title><path class="cls-1" d="M60.09,67.56H29.91a9.72,9.72,0,0,1-9.47-9.47V27.91a9.72,9.72,0,0,1,9.47-9.47H60.09a9.72,9.72,0,0,1,9.48,9.47V58.09A9.72,9.72,0,0,1,60.09,67.56ZM29.91,22.3a5.92,5.92,0,0,0-5.61,5.61V58.09a5.91,5.91,0,0,0,5.61,5.61H60.09a5.91,5.91,0,0,0,5.62-5.61V27.91a5.92,5.92,0,0,0-5.62-5.61Z"/><path class="cls-1" d="M45,52.07a1.93,1.93,0,0,1-1.4-.6L21.47,28.23a1.93,1.93,0,1,1,2.8-2.66L45,47.34,65.7,25.57a1.93,1.93,0,0,1,2.8,2.66L46.4,51.47a1.92,1.92,0,0,1-1.4.6Z"/></svg>