<svg id="Layer_1" data-name="Layer 1" xmlns="http://www.w3.org/2000/svg" viewBox="0 0 90 86"><defs><style>.cls-1{fill:#262262;}</style></defs><title>Blitzden_Lao_Web_Movil_SocialMedia</title><path class="cls-1" d="M61.37,18.44H28.63a8.49,8.49,0,0,0-8.19,8.19V59.38a8.49,8.49,0,0,0,8.19,8.19H61.37a8.49,8.49,0,0,0,8.19-8.19V26.63A8.49,8.49,0,0,0,61.37,18.44ZM55.89,44.85,38.46,55.74a1.94,1.94,0,0,1-1.16.34,2.37,2.37,0,0,1-1.05-.27,2,2,0,0,1-1.12-1.91V32.12a2.17,2.17,0,0,1,3.34-1.84L55.89,41.17a2.16,2.16,0,0,1,0,3.68Z"/></svg>